# xmcd
#
# Track frame offsets: 
#        150
#        16018
#        30406
#        48829
#        67364
#        78998
#        93715
#        107723
#        122838
#        134488
#
# Disc length: 2012 seconds
#
# Revision: 0
# Processed by: cddbd v1.5.1PL2 Copyright (c) Steve Scherf et al.
# Submitted via: ExactAudioCopy v0.95b2
#
DISCID=8207da0a
DTITLE=Various Artist - Héritage Country - Vol 4
DYEAR=1900
DGENRE=Country
TTITLE0=L'écho de mon village
TTITLE1=Mon grand amour
TTITLE2=Aide moi à passer la nuit
TTITLE3=Blue roses
TTITLE4=Jambalaya
TTITLE5=Un verre sur la table
TTITLE6=Répond moi
TTITLE7=Je bois pour oublier
TTITLE8=Quand le soleil dit bonjour aux montagnes
TTITLE9=À l'hôtel
EXTD=
EXTT0=
EXTT1=
EXTT2=
EXTT3=
EXTT4=
EXTT5=
EXTT6=
EXTT7=
EXTT8=
EXTT9=
PLAYORDER=
